<svg width="377" height="173" viewBox="0 0 377 173" fill="none" xmlns="http://www.w3.org/2000/svg">
<g clip-path="url(#clip0_77_2)">
<g opacity="0.15">
<path d="M91.94 77.9999H86.68V1.91992H57.83L15 103.15H20.26L15 115.65V139.65H66V151H60.71V170.21H86.71V151H91.97V139.69H104.46V115.69H91.94V77.9999ZM66 115.65H39.28L44.56 103.15H39.3L60.71 52.4099V77.9999H66V115.65Z" fill="#225FFA"/>
<path d="M213.38 41.33C213.05 15 198.89 0 173.23 0C147.23 0 133.08 15.39 133.08 42.31V130H138.34C138.34 156.85 152.58 172.18 178.49 172.18C204.4 172.18 218.65 156.79 218.65 129.86V42.31C218.65 41.98 218.65 41.66 218.65 41.31L213.38 41.33ZM192.21 131.51C192.21 143.51 186.91 148.11 178.49 148.11C170.07 148.11 164.79 143.53 164.79 131.51V130H159.53V40.62C159.53 28.62 164.82 24.04 173.23 24.04C181.64 24.04 187 28.6 187 40.62V41.33H192.26L192.21 131.51Z" fill="#225FFA"/>
<path d="M325.19 115.65V108H330.45V1.91992H301.6L266 86.0699H260.74L248.24 115.65V139.65H299.24V170.19H325.24V139.69H337.7V115.69L325.19 115.65ZM304.48 108H299.22V115.61H272.53L285 86.0699H290.26L304.47 52.4099L304.48 108Z" fill="#225FFA"/>
</g>
<g style="mix-blend-mode:lighten" opacity="0.15">
<path d="M112.46 77.9999H107.2V1.91992H78.3498L35.5398 103.15H40.7998L35.5098 115.65V139.65H86.5098V151H81.2298V170.21H107.23V151H112.49V139.69H125V115.69H112.5L112.46 77.9999ZM59.7998 115.65L65.0798 103.15H59.8198L81.2298 52.4099V77.9999H86.4898V115.61L59.7998 115.65Z" fill="#FF2782"/>
<path d="M233.9 41.33C233.57 15 219.41 0 193.75 0C167.75 0 153.6 15.39 153.6 42.31V130H158.86C158.86 156.85 173.1 172.18 199.01 172.18C224.92 172.18 239.17 156.79 239.17 129.86V42.31C239.17 41.98 239.17 41.66 239.17 41.31L233.9 41.33ZM212.73 131.51C212.73 143.51 207.43 148.11 199.01 148.11C190.59 148.11 185.31 143.53 185.31 131.51V130H180.05V40.62C180.05 28.62 185.35 24.04 193.75 24.04C202.15 24.04 207.47 28.6 207.47 40.62V41.33H212.73V131.51Z" fill="#FF2782"/>
<path d="M345.71 115.65V108H351V1.91992H322.12L286.54 86.0699H281.28L268.78 115.65V139.65H319.78V170.19H345.78V139.69H358.29V115.69L345.71 115.65ZM319.71 108.04V115.65H293.05L305.54 86.0699H310.8L325 52.4099V108L319.71 108.04Z" fill="#FF2782"/>
<path d="M185.87 86.0701H177.31V93.0001H185.87V86.0701Z" fill="#FF2782"/>
<path d="M236.43 55.2H222.91V62.13H236.43V55.2Z" fill="#FF2782"/>
<path d="M347.72 14.1299H334.2V21.0599H347.72V14.1299Z" fill="#FF2782"/>
<path d="M372.76 51.73H349.42V58.66H372.76V51.73Z" fill="#FF2782"/>
<path d="M176.66 116.11H164.39V123.04H176.66V116.11Z" fill="#FF2782"/>
<path d="M248.7 113.54H236.43V120.47H248.7V113.54Z" fill="#FF2782"/>
<path d="M135.11 160.44H128.18V167.37H135.11V160.44Z" fill="#FF2782"/>
<path d="M292.58 8.54004H285.65V15.47H292.58V8.54004Z" fill="#FF2782"/>
<path d="M376.22 119.57H369.29V126.5H376.22V119.57Z" fill="#FF2782"/>
</g>
<path d="M107.46 77.9999H102.2V1.91992H73.3498L30.5398 103.15H35.7998L30.5098 115.65V139.65H81.5098V151H76.2298V170.21H102.23V151H107.49V139.69H120V115.69H107.5L107.46 77.9999ZM54.7998 115.65L60.0798 103.15H54.8198L76.2298 52.4099V77.9999H81.4898V115.61L54.7998 115.65Z" fill="#FF2782"/>
<path d="M228.9 41.33C228.57 15 214.41 0 188.75 0C162.75 0 148.6 15.39 148.6 42.31V130H153.86C153.86 156.85 168.1 172.18 194.01 172.18C219.92 172.18 234.17 156.79 234.17 129.86V42.31C234.17 41.98 234.17 41.66 234.17 41.31L228.9 41.33ZM207.73 131.51C207.73 143.51 202.43 148.11 194.01 148.11C185.59 148.11 180.31 143.53 180.31 131.51V130H175.05V40.62C175.05 28.62 180.35 24.04 188.75 24.04C197.15 24.04 202.47 28.6 202.47 40.62V41.33H207.73V131.51Z" fill="#FF2782"/>
<path d="M340.71 115.65V108H346V1.91992H317.12L281.54 86.0699H276.28L263.78 115.65V139.65H314.78V170.19H340.78V139.69H353.29V115.69L340.71 115.65ZM314.71 108.04V115.65H288.05L300.54 86.0699H305.8L320 52.4099V108L314.71 108.04Z" fill="#FF2782"/>
<path d="M96.94 77.9999H91.68V1.91992H62.83L20 103.15H25.26L20 115.65V139.65H71V151H65.71V170.21H91.71V151H96.97V139.69H109.46V115.69H96.94V77.9999ZM71 115.65H44.28L49.56 103.15H44.3L65.71 52.4099V77.9999H71V115.65Z" fill="#225FFA"/>
<path d="M218.38 41.33C218.05 15 203.89 0 178.23 0C152.23 0 138.08 15.39 138.08 42.31V130H143.34C143.34 156.85 157.58 172.18 183.49 172.18C209.4 172.18 223.65 156.79 223.65 129.86V42.31C223.65 41.98 223.65 41.66 223.65 41.31L218.38 41.33ZM197.21 131.51C197.21 143.51 191.91 148.11 183.49 148.11C175.07 148.11 169.79 143.53 169.79 131.51V130H164.53V40.62C164.53 28.62 169.82 24.04 178.23 24.04C186.64 24.04 192 28.6 192 40.62V41.33H197.26L197.21 131.51Z" fill="#225FFA"/>
<path d="M330.19 115.65V108H335.45V1.91992H306.6L271 86.0699H265.74L253.24 115.65V139.65H304.24V170.19H330.24V139.69H342.7V115.69L330.19 115.65ZM309.48 108H304.22V115.61H277.53L290 86.0699H295.26L309.47 52.4099L309.48 108Z" fill="#225FFA"/>
<path d="M180.87 86.0701H172.31V93.0001H180.87V86.0701Z" fill="#FF2782"/>
<path d="M157.98 98.3899H140.47V105.32H157.98V98.3899Z" fill="#225FFA"/>
<path d="M329.7 85.3101H312.19V92.2401H329.7V85.3101Z" fill="#225FFA"/>
<path d="M231.43 55.2H217.91V62.13H231.43V55.2Z" fill="#FF2782"/>
<path d="M342.72 14.1299H329.2V21.0599H342.72V14.1299Z" fill="#FF2782"/>
<path d="M367.76 51.73H344.42V58.66H367.76V51.73Z" fill="#FF2782"/>
<path d="M206.07 62.1299H199.14V69.0599H206.07V62.1299Z" fill="#225FFA"/>
<path d="M147.14 139.26H130.94V146.19H147.14V139.26Z" fill="#225FFA"/>
<path d="M25.2499 83.2H15.1699V90.13H25.2499V83.2Z" fill="#225FFA"/>
<path d="M171.66 116.11H159.39V123.04H171.66V116.11Z" fill="#FF2782"/>
<path d="M243.7 113.54H231.43V120.47H243.7V113.54Z" fill="#FF2782"/>
<path d="M96.94 27.9999H106.13V21.0599H96.94V1.91992H68.09L54.89 33.1199H40.39V35.7499H53.78L39.58 69.3299H0V76.2699H36.65L25.28 103.14H30.54L25.25 115.65V139.65H76.25V151H71V170.21H97V151H102.26V139.69H114.76V115.69H102.2V108.6H112.76V106H102.2V77.9999H120V71.1099H97L96.94 27.9999ZM76.23 115.65H49.54L54.82 103.14H49.56L71 52.4099V77.9999H76.26L76.23 115.65Z" fill="#B3B3B8"/>
<path d="M228.91 42.31C228.91 41.98 228.91 41.66 228.91 41.31H223.65C223.45 25.5 218.25 13.77 208.57 6.93H217.45V4.31H204.16C198.45 1.48 191.53 0 183.49 0C167 0 155.3 6.2 148.92 17.59H130.11V24.53H145.9C144.118 30.2854 143.254 36.2857 143.34 42.31V60.82H130.11V63.45H143.34V130H148.6C148.545 135.483 149.262 140.947 150.73 146.23H139.88V153.16H153.43C159.61 165.47 171.61 172.16 188.75 172.16C203.33 172.16 214.19 167.31 220.92 158.3H234.64V155.67H222.64C226.74 148.93 228.87 140.25 228.87 129.84V113.54H240.35V106.61H228.91V55.2H241.25V48.27H228.91V42.31ZM188.75 148.11C180.35 148.11 175.05 143.53 175.05 131.51V130H190.13V123H169.79V40.62C169.79 28.62 175.09 24.04 183.49 24.04C191.89 24.04 197.21 28.6 197.21 40.62V41.33H202.47V96.62H189.39V99.25H202.47V131.51C202.47 143.53 197.17 148.11 188.75 148.11Z" fill="#B3B3B8"/>
<path d="M335.45 139.69H348V115.69H335.45V108H340.71V77.2899H350.58V74.6599H340.71V1.91992H311.86L302.51 23.9999H261V30.9999H299.54L281.7 73.2599H267.79V75.8899H280.59L276.28 86.0699H271L258.5 115.65V123H248.86V130H258.5V139.72H309.5V170.26H335.5V153.51H359.1V146.57H335.45V139.69ZM314.74 108H309.48V115.61H282.79L295.27 86.0299H300.54L314.74 52.3699V108Z" fill="#B3B3B8"/>
<path d="M273.49 46.95H254.07V49.58H273.49V46.95Z" fill="#B3B3B8"/>
<path d="M123.84 41.3H116.27V43.93H123.84V41.3Z" fill="#B3B3B8"/>
<path d="M54.8 152.19H45.71V154.82H54.8V152.19Z" fill="#B3B3B8"/>
<path d="M373.75 96.6201H356.73V99.2501H373.75V96.6201Z" fill="#B3B3B8"/>
<path d="M296.07 162.59H283.21V165.22H296.07V162.59Z" fill="#B3B3B8"/>
<path d="M231.43 4.31006H226.67V6.94006H231.43V4.31006Z" fill="#B3B3B8"/>
<path d="M130.11 160.44H123.18V167.37H130.11V160.44Z" fill="#FF2782"/>
<path d="M287.58 8.54004H280.65V15.47H287.58V8.54004Z" fill="#FF2782"/>
<path d="M371.22 119.57H364.29V126.5H371.22V119.57Z" fill="#FF2782"/>
<path d="M26.9202 29.6101H19.9902V36.5401H26.9202V29.6101Z" fill="#225FFA"/>
<path d="M267.24 153.51H260.31V160.44H267.24V153.51Z" fill="#225FFA"/>
<path d="M252.01 75.97H245.08V82.9H252.01V75.97Z" fill="#225FFA"/>
<path d="M248.55 20.5701H241.62V27.5001H248.55V20.5701Z" fill="#225FFA"/>
</g>
<defs>
<clipPath id="clip0_77_2">
<rect width="376.22" height="172.15" fill="white"/>
</clipPath>
</defs>
</svg>
